<svg width="48" height="48" viewBox="0 0 48 48" fill="none" xmlns="http://www.w3.org/2000/svg">
<circle cx="24" cy="24" r="24" fill="#F5F5F5"/>
<g clip-path="url(#clip0_0_742)">
<path d="M23.9958 40C23.6422 40 23.3031 39.8595 23.053 39.6095C22.803 39.3594 22.6625 39.0203 22.6625 38.6667V33C22.6625 32.6464 22.803 32.3072 23.053 32.0572C23.3031 31.8071 23.6422 31.6667 23.9958 31.6667C24.3495 31.6667 24.6886 31.8071 24.9387 32.0572C25.1887 32.3072 25.3292 32.6464 25.3292 33V38.6667C25.3292 39.0203 25.1887 39.3594 24.9387 39.6095C24.6886 39.8595 24.3495 40 23.9958 40ZM30.7438 25.3333H17.2478C16.9075 25.3336 16.5713 25.2592 16.2629 25.1155C15.9544 24.9717 15.6812 24.7621 15.4625 24.5013C15.2429 24.2414 15.0831 23.9363 14.9944 23.6078C14.9056 23.2792 14.8902 22.9352 14.9492 22.6L17.1518 9.93333C17.3465 8.81333 18.3132 8 19.4505 8H28.5398C29.6785 8 30.6452 8.81333 30.8385 9.93467L33.0412 22.6013C33.1598 23.2813 32.9732 23.9747 32.5278 24.5027C32.0852 25.0293 31.4345 25.3333 30.7438 25.3333Z" fill="#214A25"/>
<path d="M33.6634 33.9993H14.3301C14.0649 33.9993 13.8105 33.894 13.623 33.7065C13.4354 33.5189 13.3301 33.2646 13.3301 32.9993V30.3327C13.3308 29.3604 13.7173 28.4282 14.4048 27.7407C15.0923 27.0533 16.0245 26.6667 16.9967 26.666H30.9967C31.969 26.6667 32.9012 27.0533 33.5887 27.7407C34.2762 28.4282 34.6627 29.3604 34.6634 30.3327V32.9993C34.6634 33.2646 34.5581 33.5189 34.3705 33.7065C34.183 33.894 33.9286 33.9993 33.6634 33.9993Z" fill="#214A25"/>
<path d="M33.3319 34.0007V27.334C33.3319 25.1287 35.1265 23.334 37.3319 23.334C37.6855 23.3361 38.0238 23.4786 38.2723 23.7302C38.5209 23.9817 38.6593 24.3217 38.6572 24.6753C38.6551 25.0289 38.5126 25.3672 38.261 25.6158C38.0095 25.8643 37.6695 26.0028 37.3159 26.0007C36.5852 25.9913 35.9985 26.6033 35.9985 27.334V31.334C35.9985 32.0412 35.7176 32.7195 35.2175 33.2196C34.7174 33.7197 34.0391 34.0007 33.3319 34.0007ZM14.6652 34.0007V27.334C14.6652 25.1287 12.8705 23.334 10.6652 23.334C10.3116 23.3361 9.97328 23.4786 9.72474 23.7302C9.47619 23.9817 9.33775 24.3217 9.33987 24.6753C9.34199 25.0289 9.4845 25.3672 9.73605 25.6158C9.9876 25.8643 10.3276 26.0028 10.6812 26.0007C11.4119 25.9913 11.9985 26.6033 11.9985 27.334V31.334C11.9985 32.0412 12.2795 32.7195 12.7796 33.2196C13.2797 33.7197 13.958 34.0007 14.6652 34.0007ZM29.6652 40.0007H18.3319C17.9782 40.0007 17.6391 39.8602 17.3891 39.6101C17.139 39.3601 16.9985 39.0209 16.9985 38.6673C16.9985 38.3137 17.139 37.9746 17.3891 37.7245C17.6391 37.4745 17.9782 37.334 18.3319 37.334H29.6652C30.0188 37.334 30.358 37.4745 30.608 37.7245C30.8581 37.9746 30.9985 38.3137 30.9985 38.6673C30.9985 39.0209 30.8581 39.3601 30.608 39.6101C30.358 39.8602 30.0188 40.0007 29.6652 40.0007Z" fill="#FFBA35"/>
</g>
<defs>
<clipPath id="clip0_0_742">
<rect width="32" height="32" fill="white" transform="translate(8 8)"/>
</clipPath>
</defs>
</svg>
