<svg width="60" height="60" viewBox="0 0 60 60" fill="none" xmlns="http://www.w3.org/2000/svg">
<g clip-path="url(#clip0_0_5960)">
<rect x="17" y="17" width="43.0576" height="43.0576" rx="21.5288" fill="#FFBA35"/>
<path d="M55.0491 26.9114C55.0491 16.2232 50.5027 4.79318 40.6061 3.20386C40.5789 3.19909 40.555 3.19227 40.5277 3.1875C39.7644 3.06548 38.9928 3.00279 38.2198 3C27.1968 3 4 18.1909 4 30.1152C4 40.5102 11.4386 43.4755 19.4316 44.2084L10.7527 58.3405L13.3 59.9025L22.8202 44.4027C23.457 44.4191 24.0918 44.4273 24.7198 44.4273C25.7636 44.4273 26.7632 44.402 27.7518 44.37L26.7189 62.833L29.7032 63L30.7539 44.2139C32.4603 44.0994 34.1614 43.9166 35.8532 43.6657L48.6045 59.0809L50.907 57.1759L39.2125 43.037C49.7159 40.6752 55.0491 35.2909 55.0491 26.9114ZM38.2198 5.99182C38.7802 5.99182 39.3202 6.03614 39.8439 6.10909C41.1536 6.30682 42.0332 6.76364 42.4457 7.48773C44.2539 10.6698 39.1252 19.2777 36.9359 22.952C35.5239 25.3241 34.3382 26.7941 33.2909 28.0936L33.1416 28.2825C27.7061 26.4968 21.1675 26.1852 15.3748 26.1852C12.025 26.1852 9.22614 26.9427 7.23045 28.3248C9.57591 19.0895 28.647 5.99182 38.2198 5.99182ZM8.01182 32.6884C7.73432 32.3911 7.68318 31.9452 7.92045 31.663C9.24114 30.0832 11.9582 29.1777 15.3734 29.1777C20.2061 29.1777 26.1011 29.4375 30.9945 30.7793C26.8675 34.9984 22.8645 35.027 18.3107 35.027C14.5416 35.027 9.97682 34.5825 8.01182 32.6884ZM24.7191 41.4348C16.3866 41.4348 11.3766 39.9586 8.90091 36.658C11.2068 37.5648 14.3248 38.0195 18.3114 38.0195C23.4564 38.0195 29.2914 38.0195 34.8666 30.9116L35.618 29.97C36.7252 28.5941 37.9825 27.0361 39.5043 24.4855C43.3505 18.0266 45.8773 12.7868 45.7661 8.93864C50.0466 12.8461 52.0607 20.0536 52.0607 26.912C52.0607 36.5489 42.8616 41.4348 24.7191 41.4348Z" fill="#214A25"/>
</g>
<defs>
<clipPath id="clip0_0_5960">
<rect width="60" height="60" fill="white"/>
</clipPath>
</defs>
</svg>
