<svg width="60" height="60" viewBox="0 0 60 60" fill="none" xmlns="http://www.w3.org/2000/svg">
<rect width="60" height="60" rx="30" transform="matrix(-1 0 0 1 60 0)" fill="#214A25"/>
<g clip-path="url(#clip0_0_705)">
<path fill-rule="evenodd" clip-rule="evenodd" d="M37.3699 19.3788C34.7117 22.3231 29.6069 22.5849 26.6615 19.9256L25.4538 18.8353L23.2731 21.2506L24.4808 22.3409C26.6231 24.2751 29.481 25.1498 32.288 25.0077L18.8345 39.9088L21.2498 42.0894L34.7032 27.1883C34.8477 29.9952 36.009 32.7491 38.1513 34.6832L39.3589 35.7736L41.5396 33.3582L40.3319 32.2679C37.3865 29.6087 37.127 24.5037 39.7852 21.5594L40.8755 20.3518L38.4602 18.1712L37.3699 19.3788Z" fill="white"/>
</g>
<defs>
<clipPath id="clip0_0_705">
<rect width="29.2864" height="21.6718" fill="white" transform="matrix(-0.67013 0.742243 0.742243 0.67013 31.625 12)"/>
</clipPath>
</defs>
</svg>
