<svg width="62" height="60" viewBox="0 0 62 60" fill="none" xmlns="http://www.w3.org/2000/svg">
<rect x="18" y="16" width="43.0576" height="43.0576" rx="21.5288" fill="#FFBA35"/>
<path d="M13.655 46.225V38.925C13.655 36.5 15.555 34.325 18.255 34.325C20.68 34.325 22.855 36.225 22.855 38.925V45.95C22.855 50.825 18.805 54.875 13.93 54.875C9.055 54.875 5.005 50.8 5.005 45.95V30.55C4.73 16.5 15.83 5.125 29.88 5.125C43.93 5.125 55.005 16.5 55.005 30.275V45.675C55.005 50.55 50.955 54.6 46.08 54.6C41.205 54.6 37.155 50.55 37.155 45.675V38.65C37.155 36.225 39.055 34.05 41.755 34.05C44.18 34.05 46.355 35.95 46.355 38.65V46.225" stroke="#214A25" stroke-width="3.75" stroke-linecap="round" stroke-linejoin="round"/>
</svg>
