<svg width="223" height="56" viewBox="0 0 223 56" fill="none" xmlns="http://www.w3.org/2000/svg">
<circle cx="28" cy="28" r="28" fill="#FFBA35"/>
<path d="M29.3863 16.0107H39.2506V22.7291H37.4021C34.1911 22.7291 31.999 22.2255 30.826 21.2183C29.8662 20.3889 29.3863 19.05 29.3863 17.2015V16.0107ZM16.7494 16.0107H26.3115V25.7506H33.4387V30.3894H26.3115V40.1648H16.7494V16.0107Z" fill="#214A25"/>
<path d="M70.7812 40V16H86.1563V19.6445H75.1289V26.1602H85.1016V29.8047H75.1289V40H70.7812ZM100.274 32.4297V22H104.517V40H100.403V36.8008H100.216C99.8096 37.8086 99.1416 38.6328 98.2119 39.2734C97.29 39.9141 96.1533 40.2344 94.8018 40.2344C93.6221 40.2344 92.5791 39.9727 91.6729 39.4492C90.7744 38.918 90.0713 38.1484 89.5635 37.1406C89.0557 36.125 88.8018 34.8984 88.8018 33.4609V22H93.0439V32.8047C93.0439 33.9453 93.3564 34.8516 93.9814 35.5234C94.6064 36.1953 95.4268 36.5312 96.4424 36.5312C97.0674 36.5312 97.6729 36.3789 98.2588 36.0742C98.8447 35.7695 99.3252 35.3164 99.7002 34.7148C100.083 34.1055 100.274 33.3437 100.274 32.4297ZM108.879 40V22H112.992V25H113.18C113.508 23.9609 114.07 23.1602 114.867 22.5977C115.672 22.0273 116.59 21.7422 117.621 21.7422C117.855 21.7422 118.117 21.7539 118.406 21.7773C118.703 21.793 118.949 21.8203 119.145 21.8594V25.7617C118.965 25.6992 118.68 25.6445 118.289 25.5977C117.906 25.543 117.535 25.5156 117.176 25.5156C116.402 25.5156 115.707 25.6836 115.09 26.0195C114.48 26.3477 114 26.8047 113.648 27.3906C113.297 27.9766 113.121 28.6523 113.121 29.418V40H108.879ZM126.205 29.4531V40H121.963V22H126.018V25.0586H126.229C126.643 24.0508 127.303 23.25 128.209 22.6562C129.123 22.0625 130.252 21.7656 131.596 21.7656C132.838 21.7656 133.92 22.0312 134.842 22.5625C135.771 23.0937 136.49 23.8633 136.998 24.8711C137.514 25.8789 137.768 27.1016 137.76 28.5391V40H133.518V29.1953C133.518 27.9922 133.205 27.0508 132.58 26.3711C131.963 25.6914 131.107 25.3516 130.014 25.3516C129.271 25.3516 128.611 25.5156 128.033 25.8437C127.463 26.1641 127.014 26.6289 126.686 27.2383C126.365 27.8477 126.205 28.5859 126.205 29.4531ZM142.072 40V22H146.314V40H142.072ZM144.205 19.4453C143.533 19.4453 142.955 19.2227 142.471 18.7773C141.986 18.3242 141.744 17.7812 141.744 17.1484C141.744 16.5078 141.986 15.9648 142.471 15.5195C142.955 15.0664 143.533 14.8398 144.205 14.8398C144.885 14.8398 145.463 15.0664 145.939 15.5195C146.424 15.9648 146.666 16.5078 146.666 17.1484C146.666 17.7812 146.424 18.3242 145.939 18.7773C145.463 19.2227 144.885 19.4453 144.205 19.4453ZM159.665 22V25.2812H149.317V22H159.665ZM151.872 17.6875H156.114V34.5859C156.114 35.1563 156.2 35.5938 156.372 35.8984C156.552 36.1953 156.786 36.3984 157.075 36.5078C157.364 36.6172 157.685 36.6719 158.036 36.6719C158.302 36.6719 158.544 36.6523 158.763 36.6133C158.989 36.5742 159.161 36.5391 159.278 36.5078L159.993 39.8242C159.767 39.9023 159.442 39.9883 159.021 40.082C158.606 40.1758 158.099 40.2305 157.497 40.2461C156.435 40.2773 155.478 40.1172 154.626 39.7656C153.774 39.4062 153.099 38.8516 152.599 38.1016C152.106 37.3516 151.864 36.4141 151.872 35.2891V17.6875ZM174.686 32.4297V22H178.928V40H174.814V36.8008H174.627C174.221 37.8086 173.553 38.6328 172.623 39.2734C171.701 39.9141 170.564 40.2344 169.213 40.2344C168.033 40.2344 166.99 39.9727 166.084 39.4492C165.186 38.918 164.482 38.1484 163.975 37.1406C163.467 36.125 163.213 34.8984 163.213 33.4609V22H167.455V32.8047C167.455 33.9453 167.768 34.8516 168.393 35.5234C169.018 36.1953 169.838 36.5312 170.854 36.5312C171.479 36.5312 172.084 36.3789 172.67 36.0742C173.256 35.7695 173.736 35.3164 174.111 34.7148C174.494 34.1055 174.686 33.3437 174.686 32.4297ZM183.29 40V22H187.403V25H187.591C187.919 23.9609 188.481 23.1602 189.278 22.5977C190.083 22.0273 191.001 21.7422 192.032 21.7422C192.267 21.7422 192.528 21.7539 192.817 21.7773C193.114 21.793 193.36 21.8203 193.556 21.8594V25.7617C193.376 25.6992 193.091 25.6445 192.7 25.5977C192.317 25.543 191.946 25.5156 191.587 25.5156C190.813 25.5156 190.118 25.6836 189.501 26.0195C188.892 26.3477 188.411 26.8047 188.06 27.3906C187.708 27.9766 187.532 28.6523 187.532 29.418V40H183.29ZM203.602 40.3516C201.797 40.3516 200.238 39.9766 198.926 39.2266C197.621 38.4687 196.617 37.3984 195.914 36.0156C195.211 34.625 194.859 32.9883 194.859 31.1055C194.859 29.2539 195.211 27.6289 195.914 26.2305C196.625 24.8242 197.617 23.7305 198.891 22.9492C200.164 22.1602 201.66 21.7656 203.379 21.7656C204.488 21.7656 205.535 21.9453 206.52 22.3047C207.512 22.6562 208.387 23.2031 209.145 23.9453C209.91 24.6875 210.512 25.6328 210.949 26.7812C211.387 27.9219 211.605 29.2812 211.605 30.8594V32.1602H196.852V29.3008H207.539C207.531 28.4883 207.355 27.7656 207.012 27.1328C206.668 26.4922 206.188 25.9883 205.57 25.6211C204.961 25.2539 204.25 25.0703 203.437 25.0703C202.57 25.0703 201.809 25.2812 201.152 25.7031C200.496 26.1172 199.984 26.6641 199.617 27.3437C199.258 28.0156 199.074 28.7539 199.066 29.5586V32.0547C199.066 33.1016 199.258 34 199.641 34.75C200.023 35.4922 200.559 36.0625 201.246 36.4609C201.934 36.8516 202.738 37.0469 203.66 37.0469C204.277 37.0469 204.836 36.9609 205.336 36.7891C205.836 36.6094 206.27 36.3477 206.637 36.0039C207.004 35.6602 207.281 35.2344 207.469 34.7266L211.43 35.1719C211.18 36.2187 210.703 37.1328 210 37.9141C209.305 38.6875 208.414 39.2891 207.328 39.7187C206.242 40.1406 205 40.3516 203.602 40.3516Z" fill="white"/>
<path d="M217.808 40.2578C217.097 40.2578 216.487 40.0078 215.979 39.5078C215.472 39.0078 215.222 38.3984 215.229 37.6797C215.222 36.9766 215.472 36.375 215.979 35.875C216.487 35.375 217.097 35.125 217.808 35.125C218.495 35.125 219.093 35.375 219.601 35.875C220.116 36.375 220.378 36.9766 220.386 37.6797C220.378 38.1562 220.253 38.5898 220.011 38.9805C219.776 39.3711 219.464 39.6836 219.073 39.918C218.69 40.1445 218.269 40.2578 217.808 40.2578Z" fill="#FFBA35"/>
</svg>
