<svg width="62" height="60" viewBox="0 0 62 60" fill="none" xmlns="http://www.w3.org/2000/svg">
<rect x="18" y="16" width="43.0576" height="43.0576" rx="21.5288" fill="#FFBA35"/>
<path d="M32.5 22.5H17.5" stroke="#214A25" stroke-width="3" stroke-linecap="round" stroke-linejoin="round"/>
<path d="M54.9947 27.4249V32.575C54.9947 33.95 53.8947 35.0749 52.4947 35.1249H47.5946C44.8946 35.1249 42.4197 33.15 42.1947 30.45C42.0447 28.875 42.6446 27.3999 43.6946 26.3749C44.6196 25.4249 45.8946 24.875 47.2946 24.875H52.4947C53.8947 24.925 54.9947 26.0499 54.9947 27.4249Z" stroke="#214A25" stroke-width="3" stroke-linecap="round" stroke-linejoin="round"/>
<path d="M43.7 26.375C42.65 27.4 42.05 28.875 42.2 30.45C42.425 33.15 44.8999 35.125 47.5999 35.125H52.5V38.75C52.5 46.25 47.5 51.25 40 51.25H17.5C10 51.25 5 46.25 5 38.75V21.25C5 14.45 9.10001 9.69999 15.475 8.89999C16.125 8.79999 16.8 8.75 17.5 8.75H40C40.65 8.75 41.275 8.77497 41.875 8.87497C48.325 9.62497 52.5 14.4 52.5 21.25V24.875H47.3C45.9 24.875 44.625 25.425 43.7 26.375Z" stroke="#214A25" stroke-width="3" stroke-linecap="round" stroke-linejoin="round"/>
</svg>
