<svg width="80" height="81" viewBox="0 0 80 81" fill="none" xmlns="http://www.w3.org/2000/svg">
<circle cx="40" cy="40.5" r="40" fill="#F5F5F5"/>
<path d="M30.911 40.0827C33.3957 40.0827 35.2705 40.6474 36.5354 41.7768C37.8003 42.8836 38.4328 44.4083 38.4328 46.3509C38.4328 48.4516 37.6648 50.1683 36.1288 51.501C34.5928 52.8337 32.7406 53.5 30.5722 53.5C28.0875 53.5 26.032 52.6868 24.4056 51.0605C22.8019 49.4116 22 47.0398 22 43.9453C22 41.1895 22.4743 38.7161 23.423 36.5251C24.3943 34.3115 25.7722 32.448 27.5567 30.9346C29.3637 29.4212 31.5209 28.3482 34.0281 27.7158C35.022 27.4673 35.7787 27.4334 36.2982 27.6141C36.8403 27.7948 37.1904 28.1562 37.3486 28.6984C37.4841 29.1727 37.3937 29.6358 37.0775 30.0875C36.7839 30.5167 36.1853 30.9007 35.2818 31.2395C33.5877 31.8042 32.1985 32.527 31.1143 33.408C30.03 34.2663 29.2282 35.1698 28.7086 36.1185C28.1891 37.0446 27.9294 37.9143 27.9294 38.7274C27.9294 39.134 28.0536 39.4615 28.3021 39.71C28.5505 39.9585 28.9797 40.0827 29.5896 40.0827H30.911ZM49.9188 40.0827C52.3809 40.0827 54.2444 40.6474 55.5093 41.7768C56.7968 42.8836 57.4406 44.4083 57.4406 46.3509C57.4406 48.4516 56.6613 50.1683 55.1027 51.501C53.5668 52.8337 51.7258 53.5 49.58 53.5C47.0727 53.5 45.0172 52.6868 43.4134 51.0605C41.8097 49.4116 41.0078 47.0285 41.0078 43.9114C41.0078 41.1782 41.4822 38.7048 42.4309 36.4912C43.3796 34.2776 44.7574 32.4254 46.5645 30.9346C48.3715 29.4212 50.5287 28.3482 53.0359 27.7158C54.0072 27.4673 54.7639 27.4334 55.306 27.6141C55.8481 27.7722 56.187 28.1224 56.3225 28.6645C56.4806 29.1614 56.4016 29.6358 56.0853 30.0875C55.7917 30.5167 55.1818 30.9007 54.2557 31.2395C52.5842 31.8042 51.2063 32.527 50.1221 33.408C49.0379 34.2663 48.236 35.1698 47.7165 36.1185C47.1969 37.0446 46.9372 37.9143 46.9372 38.7274C46.9372 39.134 47.0614 39.4615 47.3099 39.71C47.5583 39.9585 47.9875 40.0827 48.5974 40.0827H49.9188Z" fill="#214A25"/>
</svg>
