<svg width="62" height="60" viewBox="0 0 62 60" fill="none" xmlns="http://www.w3.org/2000/svg">
<rect x="18" y="16" width="43.0576" height="43.0576" rx="21.5288" fill="#FFBA35"/>
<path d="M7.92188 18.6025L29.9968 31.3775L51.9218 18.6775" stroke="#214A25" stroke-width="3" stroke-linecap="round" stroke-linejoin="round"/>
<path d="M29.9844 54.0266V31.3516" stroke="#214A25" stroke-width="3" stroke-linecap="round" stroke-linejoin="round"/>
<path d="M24.8265 6.20098L11.4765 13.6261C8.45152 15.3011 5.97656 19.501 5.97656 22.951V37.0761C5.97656 40.5261 8.45152 44.726 11.4765 46.401L24.8265 53.8261C27.6765 55.4011 32.3515 55.4011 35.2015 53.8261L48.5516 46.401C51.5766 44.726 54.0515 40.5261 54.0515 37.0761V22.951C54.0515 19.501 51.5766 15.3011 48.5516 13.6261L35.2015 6.20098C32.3265 4.60098 27.6765 4.60098 24.8265 6.20098Z" stroke="#214A25" stroke-width="3" stroke-linecap="round" stroke-linejoin="round"/>
<path d="M42.4984 33.0991V23.9491L18.7734 10.249" stroke="#214A25" stroke-width="3" stroke-linecap="round" stroke-linejoin="round"/>
</svg>
