<svg width="32" height="32" viewBox="0 0 32 32" fill="none" xmlns="http://www.w3.org/2000/svg">
<path d="M22.666 4.66637H9.33268C5.33268 4.66637 2.66602 6.66637 2.66602 11.333V20.6664C2.66602 25.333 5.33268 27.333 9.33268 27.333H22.666C26.666 27.333 29.3327 25.333 29.3327 20.6664V11.333C29.3327 6.66637 26.666 4.66637 22.666 4.66637ZM23.2927 12.7864L19.1194 16.1197C18.2394 16.8264 17.1193 17.173 15.9993 17.173C14.8793 17.173 13.746 16.8264 12.8793 16.1197L8.70602 12.7864C8.27935 12.4397 8.21268 11.7997 8.54602 11.373C8.89268 10.9464 9.51935 10.8664 9.94602 11.213L14.1193 14.5464C15.1327 15.3597 16.8527 15.3597 17.866 14.5464L22.0394 11.213C22.466 10.8664 23.106 10.933 23.4394 11.373C23.786 11.7997 23.7193 12.4397 23.2927 12.7864Z" fill="white"/>
</svg>
