<svg width="20" height="20" viewBox="0 0 20 20" fill="none" xmlns="http://www.w3.org/2000/svg">
<path id="Star 2" d="M8.82666 1.37746C9.30662 0.404948 10.6934 0.404946 11.1733 1.37745L13.2223 5.52903C13.4129 5.91522 13.7813 6.18289 14.2075 6.24482L18.789 6.91055C19.8622 7.0665 20.2908 8.38539 19.5142 9.14239L16.1989 12.3739C15.8905 12.6745 15.7498 13.1076 15.8226 13.5321L16.6052 18.0951C16.7886 19.164 15.6667 19.9791 14.7067 19.4745L10.6089 17.3201C10.2277 17.1197 9.77231 17.1197 9.39112 17.3201L5.29327 19.4745C4.33334 19.9791 3.21143 19.164 3.39475 18.0951L4.17738 13.5321C4.25018 13.1076 4.10945 12.6745 3.80107 12.3739L0.485833 9.14239C-0.29076 8.3854 0.137772 7.0665 1.211 6.91055L5.79254 6.24482C6.21872 6.18289 6.58714 5.91522 6.77773 5.52903L8.82666 1.37746Z" fill="#D9D9D9"/>
</svg>