<svg width="60" height="60" viewBox="0 0 60 60" fill="none" xmlns="http://www.w3.org/2000/svg">
<g clip-path="url(#clip0_0_5948)">
<rect x="17" y="17" width="43.0576" height="43.0576" rx="21.5288" fill="#FFBA35"/>
<g clip-path="url(#clip1_0_5948)">
<path d="M59.1482 31.0463C58.844 29.8078 58.5293 28.5271 58.3682 27.177C58.2422 26.1214 58.4078 24.7882 58.5833 23.3764C58.8824 20.9697 59.2213 18.2421 58.1138 15.9827C56.6244 12.9451 54.6457 10.1811 52.2324 7.76773L52.2317 7.76703C49.8186 5.35414 47.0549 3.37554 44.0173 1.88621C41.7581 0.778786 39.0303 1.11758 36.6237 1.41676C35.2122 1.59218 33.8788 1.75789 32.8229 1.63179C31.4731 1.47066 30.1924 1.15613 28.9539 0.851794C26.0652 0.14199 23.078 -0.591838 19.5513 0.742576C16.5 1.89699 14.4804 4.2698 12.5271 6.56433C11.7647 7.46023 10.976 8.38648 10.1372 9.22543C9.54904 9.81371 8.82318 10.3566 8.05455 10.9316C6.66353 11.9722 5.22506 13.0481 4.29728 14.6157C2.87931 17.0114 2.81697 19.0225 2.7565 20.9676C2.72744 21.9015 2.69756 22.8673 2.51463 23.9282C2.33193 24.9877 1.89951 26.1638 1.44177 27.4088C0.580212 29.7525 -0.310647 32.1757 0.105603 34.6558C0.489275 36.9424 1.64756 38.5817 2.76775 40.1669C3.34818 40.9882 3.89627 41.7641 4.3506 42.6372C4.76615 43.4359 5.10986 44.3799 5.47385 45.3795C6.19924 47.3717 7.02142 49.6297 8.69592 51.3042C10.3705 52.9788 12.6285 53.801 14.6208 54.5262C15.6204 54.8904 16.5645 55.2341 17.3631 55.6495C18.2362 56.1036 19.0119 56.6518 19.8333 57.2323C21.4186 58.3524 23.0578 59.5108 25.3444 59.8945C25.7782 59.9673 26.2099 60.0001 26.6401 60.0001C28.6695 60.0001 30.6578 59.2692 32.5911 58.5583C33.8363 58.1005 35.0124 57.6683 36.0716 57.4856C37.1325 57.3025 38.0983 57.2725 39.0324 57.2435C40.9774 57.1831 42.9887 57.1207 45.3842 55.7027C46.9519 54.7748 48.028 53.3363 49.0685 51.9453C49.6433 51.1768 50.1863 50.4509 50.7744 49.8628C51.6134 49.0238 52.5396 48.2354 53.4356 47.4729C55.7302 45.5197 58.1029 43.5002 59.2574 40.4489C60.5916 36.9222 59.8579 33.9351 59.1482 31.0463ZM55.9568 39.1999C55.1237 41.4016 53.2814 42.9698 51.1483 44.7855C50.1994 45.5933 49.2181 46.4285 48.279 47.3675C47.5119 48.1346 46.8668 48.9971 46.2427 49.8315C45.3712 50.9964 44.5481 52.0968 43.5866 52.666C41.972 53.6218 40.6929 53.6615 38.9228 53.7165C37.9166 53.7478 36.7761 53.7832 35.4721 54.008C34.0961 54.2455 32.7121 54.7543 31.3735 55.2464C29.462 55.949 27.4854 56.6751 25.9283 56.4144C24.4361 56.1639 23.2467 55.3236 21.8695 54.3503C20.9883 53.7276 20.0772 53.0837 18.9918 52.5191C17.9885 51.997 16.8903 51.5971 15.8281 51.2104C14.0202 50.5522 12.3127 49.9305 11.1913 48.809C10.0699 47.6875 9.44814 45.98 8.7899 44.1724C8.40318 43.1102 8.00322 42.0118 7.48127 41.0087C6.91654 39.9232 6.2726 39.0119 5.64986 38.1307C4.67674 36.7535 3.83638 35.5641 3.58595 34.072C3.32474 32.5149 4.05142 30.5383 4.75408 28.627C5.24627 27.2884 5.7551 25.9044 5.9924 24.5282C6.21728 23.2241 6.25267 22.0837 6.28396 21.0775C6.33892 19.3073 6.37865 18.0282 7.33443 16.4137C7.90338 15.4523 9.00377 14.6293 10.1687 13.7579C11.0031 13.1337 11.8657 12.4883 12.6329 11.7213C13.572 10.7824 14.4072 9.80129 15.2148 8.85219C17.0306 6.7189 18.5988 4.8766 20.8006 4.04351C23.3013 3.09711 25.4244 3.61894 28.1124 4.27929C29.4538 4.60894 30.8408 4.94949 32.4051 5.13629C33.8875 5.31324 35.4999 5.11285 37.0592 4.91902C39.07 4.66929 41.1496 4.41066 42.4641 5.05519C45.1521 6.37297 47.599 8.12515 49.7369 10.2629L49.7373 10.2634C51.8753 12.4014 53.6277 14.8484 54.9456 17.5365C55.5901 18.8512 55.3316 20.9306 55.0818 22.9416C54.8881 24.5008 54.6876 26.1131 54.8646 27.5956C55.0513 29.1597 55.3921 30.5469 55.7216 31.8883C56.3816 34.5761 56.9031 36.6992 55.9568 39.1999Z" fill="#214A25"/>
<path d="M30.3798 6.55518C17.6411 6.55518 7.27734 16.9189 7.27734 29.6575C7.27734 42.3962 17.6411 52.7599 30.3798 52.7599C43.1186 52.7599 53.4823 42.3962 53.4823 29.6575C53.4823 16.9189 43.1186 6.55518 30.3798 6.55518ZM30.3798 49.2312C19.587 49.2312 10.8062 40.4506 10.8062 29.6578C10.8062 18.8649 19.5868 10.084 30.3798 10.084C41.1728 10.084 49.9534 18.8647 49.9534 29.6575C49.9534 40.4504 41.1728 49.2312 30.3798 49.2312Z" fill="#214A25"/>
<path d="M30.3804 12.6558C21.0057 12.6558 13.3789 20.2826 13.3789 29.6572C13.3789 39.0319 21.0057 46.6586 30.3804 46.6586C39.755 46.6586 47.3818 39.0319 47.3818 29.6572C47.3818 20.2826 39.7549 12.6558 30.3804 12.6558ZM30.3804 43.13C22.9515 43.13 16.9078 37.0863 16.9078 29.6574C16.9078 22.2286 22.9515 16.1847 30.3804 16.1847C37.8092 16.1847 43.8529 22.2285 43.8529 29.6573C43.8529 37.0862 37.8091 43.13 30.3804 43.13Z" fill="#214A25"/>
<path d="M30.3817 21.2422C25.7418 21.2422 21.9668 25.0171 21.9668 29.6571C21.9668 34.297 25.7418 38.072 30.3817 38.072C35.0216 38.072 38.7966 34.297 38.7966 29.6571C38.7966 25.0171 35.0217 21.2422 30.3817 21.2422ZM30.3817 34.5433C27.6875 34.5433 25.4957 32.3514 25.4957 29.6573C25.4957 26.9632 27.6875 24.7713 30.3817 24.7713C33.0758 24.7713 35.2677 26.9632 35.2677 29.6573C35.2677 32.3514 33.0759 34.5433 30.3817 34.5433Z" fill="#214A25"/>
</g>
</g>
<defs>
<clipPath id="clip0_0_5948">
<rect width="60" height="60" fill="white"/>
</clipPath>
<clipPath id="clip1_0_5948">
<rect width="60" height="60" fill="white"/>
</clipPath>
</defs>
</svg>
